<mxfile host="app.diagrams.net" modified="2023-05-05T15:07:01.080Z" agent="Mozilla/5.0 (Windows NT 10.0; Win64; x64) AppleWebKit/537.36 (KHTML, like Gecko) Chrome/112.0.0.0 Safari/537.36" etag="LbpUWtVN9tp8f_LA8BmX" version="21.2.9" type="github">
  <diagram name="Page-1" id="QU6AnuqbetQZIvfhVjC7">
    <mxGraphModel dx="1434" dy="764" grid="1" gridSize="10" guides="1" tooltips="1" connect="1" arrows="1" fold="1" page="1" pageScale="1" pageWidth="850" pageHeight="1100" math="0" shadow="0">
      <root>
        <mxCell id="0" />
        <mxCell id="1" parent="0" />
        <mxCell id="ok3uueIV9nNlvzrIkQ8d-1" value="Header" style="rounded=0;whiteSpace=wrap;html=1;" vertex="1" parent="1">
          <mxGeometry x="40" y="40" width="360" height="40" as="geometry" />
        </mxCell>
        <mxCell id="ok3uueIV9nNlvzrIkQ8d-2" value="Nav Bar" style="rounded=0;whiteSpace=wrap;html=1;" vertex="1" parent="1">
          <mxGeometry x="480" y="40" width="360" height="40" as="geometry" />
        </mxCell>
        <mxCell id="ok3uueIV9nNlvzrIkQ8d-3" value="Image" style="rounded=0;whiteSpace=wrap;html=1;" vertex="1" parent="1">
          <mxGeometry x="40" y="90" width="800" height="110" as="geometry" />
        </mxCell>
        <mxCell id="ok3uueIV9nNlvzrIkQ8d-4" value="About me" style="rounded=0;whiteSpace=wrap;html=1;" vertex="1" parent="1">
          <mxGeometry x="80" y="240" width="200" height="120" as="geometry" />
        </mxCell>
        <mxCell id="ok3uueIV9nNlvzrIkQ8d-5" value="Project" style="rounded=0;whiteSpace=wrap;html=1;" vertex="1" parent="1">
          <mxGeometry x="320" y="360" width="480" height="240" as="geometry" />
        </mxCell>
        <mxCell id="ok3uueIV9nNlvzrIkQ8d-6" value="Project" style="rounded=0;whiteSpace=wrap;html=1;" vertex="1" parent="1">
          <mxGeometry x="320" y="640" width="220" height="120" as="geometry" />
        </mxCell>
        <mxCell id="ok3uueIV9nNlvzrIkQ8d-7" value="Project" style="rounded=0;whiteSpace=wrap;html=1;" vertex="1" parent="1">
          <mxGeometry x="580" y="640" width="220" height="120" as="geometry" />
        </mxCell>
        <mxCell id="ok3uueIV9nNlvzrIkQ8d-8" value="Project" style="rounded=0;whiteSpace=wrap;html=1;" vertex="1" parent="1">
          <mxGeometry x="580" y="800" width="220" height="120" as="geometry" />
        </mxCell>
        <mxCell id="ok3uueIV9nNlvzrIkQ8d-9" value="Project" style="rounded=0;whiteSpace=wrap;html=1;" vertex="1" parent="1">
          <mxGeometry x="320" y="800" width="220" height="120" as="geometry" />
        </mxCell>
        <mxCell id="ok3uueIV9nNlvzrIkQ8d-10" value="Paragraph about me" style="rounded=0;whiteSpace=wrap;html=1;" vertex="1" parent="1">
          <mxGeometry x="320" y="240" width="480" height="80" as="geometry" />
        </mxCell>
        <mxCell id="ok3uueIV9nNlvzrIkQ8d-12" value="Work" style="rounded=0;whiteSpace=wrap;html=1;" vertex="1" parent="1">
          <mxGeometry x="80" y="370" width="200" height="550" as="geometry" />
        </mxCell>
        <mxCell id="ok3uueIV9nNlvzrIkQ8d-13" value="" style="endArrow=none;html=1;rounded=0;fillColor=#dae8fc;strokeColor=#6c8ebf;" edge="1" parent="1">
          <mxGeometry width="50" height="50" relative="1" as="geometry">
            <mxPoint x="300" y="360" as="sourcePoint" />
            <mxPoint x="300" y="240" as="targetPoint" />
          </mxGeometry>
        </mxCell>
        <mxCell id="ok3uueIV9nNlvzrIkQ8d-14" value="" style="endArrow=none;html=1;rounded=0;fillColor=#dae8fc;strokeColor=#6c8ebf;" edge="1" parent="1">
          <mxGeometry width="50" height="50" relative="1" as="geometry">
            <mxPoint x="300" y="920" as="sourcePoint" />
            <mxPoint x="300" y="370" as="targetPoint" />
          </mxGeometry>
        </mxCell>
        <mxCell id="ok3uueIV9nNlvzrIkQ8d-15" value="Contact Me" style="rounded=0;whiteSpace=wrap;html=1;" vertex="1" parent="1">
          <mxGeometry x="80" y="960" width="200" height="80" as="geometry" />
        </mxCell>
        <mxCell id="ok3uueIV9nNlvzrIkQ8d-16" value="Footer with links to my pages" style="rounded=0;whiteSpace=wrap;html=1;" vertex="1" parent="1">
          <mxGeometry x="320" y="960" width="480" height="80" as="geometry" />
        </mxCell>
        <mxCell id="ok3uueIV9nNlvzrIkQ8d-17" value="" style="endArrow=none;html=1;rounded=0;fillColor=#dae8fc;strokeColor=#6c8ebf;" edge="1" parent="1">
          <mxGeometry width="50" height="50" relative="1" as="geometry">
            <mxPoint x="300" y="1040" as="sourcePoint" />
            <mxPoint x="300" y="960" as="targetPoint" />
          </mxGeometry>
        </mxCell>
        <mxCell id="ok3uueIV9nNlvzrIkQ8d-18" value="Subtitle" style="rounded=0;whiteSpace=wrap;html=1;" vertex="1" parent="1">
          <mxGeometry x="670" y="160" width="170" height="40" as="geometry" />
        </mxCell>
      </root>
    </mxGraphModel>
  </diagram>
</mxfile>
